<mxfile host="app.diagrams.net" modified="2023-05-12T15:24:25.258Z" agent="Mozilla/5.0 (X11; Linux x86_64; rv:102.0) Gecko/20100101 Firefox/102.0" version="21.2.9" etag="XisJpYdbZ1XNqyqYtRcU" type="github">
  <diagram name="Page-1" id="aISMV64e-wziiWHYRBFN">
    <mxGraphModel>
      <root>
        <mxCell id="0" />
        <mxCell id="1" parent="0" />
      </root>
    </mxGraphModel>
  </diagram>
</mxfile>
